<svg width="13" height="19" viewBox="0 0 13 19" fill="none" xmlns="http://www.w3.org/2000/svg">
<path d="M12.586 6.35279C12.4928 6.43594 10.8575 7.49301 10.8575 9.84462C10.8575 12.5645 12.9379 13.5265 13 13.5502C12.9897 13.6096 12.6688 14.8686 11.9028 16.1513C11.2198 17.2797 10.5055 18.4079 9.41879 18.4079C8.33205 18.4079 8.05254 17.6834 6.80015 17.6834C5.57882 17.6834 5.14408 18.4317 4.15044 18.4317C3.1568 18.4317 2.46331 17.3865 1.66639 16.1038C0.745205 14.5953 0 12.2556 0 10.0346C0 6.47147 2.01835 4.58296 4.00553 4.58296C5.0613 4.58296 5.941 5.37875 6.60342 5.37875C7.23478 5.37875 8.2181 4.53546 9.41869 4.53546C9.87417 4.53558 11.5096 4.58319 12.586 6.35279ZM8.84956 3.02725C9.34633 2.35025 9.69829 1.41197 9.69829 0.473696C9.69829 0.343057 9.68797 0.212418 9.66722 0.105469C8.85988 0.141118 7.89731 0.723129 7.31766 1.49512C6.86228 2.08897 6.43787 3.02725 6.43787 3.97749C6.43787 4.11997 6.45861 4.26257 6.46893 4.31006C6.52064 4.32191 6.60352 4.33387 6.6863 4.33387C7.41086 4.33375 8.32162 3.77555 8.84956 3.02725Z" fill="#F5F5F7"/>
</svg>
