<svg width="14" height="15" viewBox="0 0 14 15" fill="none" xmlns="http://www.w3.org/2000/svg">
<path d="M13.8305 13.5622L10.1484 9.8814C11.076 8.74578 11.5317 7.29733 11.4213 5.8354C11.3109 4.37346 10.6429 3.00979 9.55532 2.02623C8.46774 1.04267 7.04374 0.514386 5.57761 0.550572C4.11147 0.586757 2.71528 1.18464 1.67759 2.22066C0.639892 3.25668 0.0400138 4.65163 0.00193043 6.11723C-0.036153 7.58283 0.49047 9.00704 1.47296 10.0955C2.45545 11.184 3.81871 11.8535 5.28098 11.9658C6.74326 12.078 8.19278 11.6243 9.32997 10.6985L13.012 14.3794C13.1206 14.4879 13.2678 14.5488 13.4213 14.5488C13.5747 14.5488 13.722 14.4879 13.8305 14.3794C13.939 14.2709 14 14.1237 14 13.9703C14 13.8168 13.939 13.6697 13.8305 13.5612V13.5622ZM1.18422 6.27944C1.18442 5.38114 1.45108 4.50306 1.95047 3.75625C2.44986 3.00944 3.15956 2.42742 3.98982 2.0838C4.82008 1.74018 5.73362 1.65038 6.61494 1.82575C7.49625 2.00113 8.30575 2.43381 8.94109 3.06909C9.57643 3.70436 10.0091 4.51369 10.1843 5.39475C10.3595 6.27581 10.2695 7.18904 9.92556 8.01895C9.58163 8.84885 8.99926 9.55817 8.25208 10.0572C7.5049 10.5563 6.62647 10.8226 5.72787 10.8226C4.52298 10.8215 3.36777 10.3425 2.51588 9.49068C1.66399 8.63888 1.18505 7.48394 1.18422 6.27944Z" fill="#F5F5F7"/>
</svg>
